<svg fill="currentColor" id="Icon_material-home-repair-service" data-name="Icon material-home-repair-service"
  xmlns="http://www.w3.org/2000/svg" width="20" height="18" viewBox="0 0 20 18">
  <path id="Icon_material-home-repair-service-2" data-name="Icon material-home-repair-service"
    d="M19,19.5H17V18.375H9V19.5H7V18.375H3V24H23V18.375H19Zm2-9H18V8.25A2.142,2.142,0,0,0,16,6H10A2.142,2.142,0,0,0,8,8.25V10.5H5a2.142,2.142,0,0,0-2,2.25v4.5H7V15H9v2.25h8V15h2v2.25h4v-4.5A2.142,2.142,0,0,0,21,10.5Zm-5,0H10V8.25h6Z"
    transform="translate(-3 -6)" fill="inherit" />
</svg>