<svg xmlns="http://www.w3.org/2000/svg" width="12.001" height="12" viewBox="0 0 12.001 12">
  <path fill="currentColor"
    d="M8.25 12v-1.715h-4.5V12h-1.5v-1.715H.857a.857.857 0 0 1 0-1.714H2.25V6.857H.857a.857.857 0 0 1 0-1.714H2.25V3.428H.857a.857.857 0 1 1 0-1.714H2.25V0h1.5v1.715h4.5V0h1.5v1.715h.75v1.713h-.75v1.715h.75v1.714h-.75v1.715h.75v1.714h-.75V12Zm0-3.428V6.857h-4.5v1.715Zm0-3.429V3.428h-4.5v1.715Zm2.25 5.143V8.572h.643a.857.857 0 1 1 0 1.714Zm0-3.428V5.143h.643a.857.857 0 1 1 0 1.714Zm0-3.429V1.715h.643a.857.857 0 1 1 0 1.714Z"
    data-name="합치기 6" />
</svg>