<svg xmlns="http://www.w3.org/2000/svg" width="16" height="16" viewBox="0 0 16 16">
  <path id="process_3_" data-name="process (3)" d="M1.333,8A.667.667,0,1,1,0,8,7.989,7.989,0,0,1,13.333,2.051V.667a.667.667,0,1,1,1.333,0V3A1.669,1.669,0,0,1,13,4.667H10.667a.667.667,0,1,1,0-1.333h2.084A6.659,6.659,0,0,0,1.333,8Zm14-.667A.666.666,0,0,0,14.667,8,6.66,6.66,0,0,1,3.249,12.667H5.333a.667.667,0,1,0,0-1.333H3A1.669,1.669,0,0,0,1.333,13v2.333a.667.667,0,0,0,1.333,0V13.949A7.989,7.989,0,0,0,16,8,.666.666,0,0,0,15.333,7.333ZM11.8,6.577l-.649.375a3.056,3.056,0,0,1,0,2.1l.649.375a.667.667,0,1,1-.667,1.155l-.649-.375a3.314,3.314,0,0,1-1.815,1.063V12a.667.667,0,0,1-1.333,0v-.734A3.322,3.322,0,0,1,5.518,10.2l-.649.375A.667.667,0,1,1,4.2,9.423l.649-.375a3.056,3.056,0,0,1,0-2.1L4.2,6.577a.667.667,0,1,1,.667-1.155l.649.375A3.314,3.314,0,0,1,7.333,4.735V4A.667.667,0,0,1,8.667,4v.734A3.322,3.322,0,0,1,10.482,5.8l.649-.375A.667.667,0,0,1,11.8,6.577ZM10,8a2,2,0,1,0-2,2A2,2,0,0,0,10,8Z" fill="#555"/>
</svg>
