<svg xmlns="http://www.w3.org/2000/svg" width="16" height="14.667" viewBox="0 0 16 14.667">
  <path id="dashboard-monitor_5_" data-name="dashboard-monitor (5)" d="M9.333,7a3.309,3.309,0,0,1-.555,1.836L6.862,6.919a.666.666,0,0,1-.2-.471V3.734A3.334,3.334,0,0,1,9.333,7Zm-4-.276V3.734a3.334,3.334,0,1,0,2.5,6.045L5.723,7.667a1.334,1.334,0,0,1-.391-.943Zm7.333-3.057H11.333a.667.667,0,1,0,0,1.333h1.333a.667.667,0,1,0,0-1.333Zm0,2.667H11.333a.667.667,0,1,0,0,1.333h1.333a.667.667,0,1,0,0-1.333Zm0,2.667H11.333a.667.667,0,1,0,0,1.333h1.333a.667.667,0,1,0,0-1.333ZM16,4.333V9.667A3.337,3.337,0,0,1,12.667,13h-4v1.333h2.667a.667.667,0,0,1,0,1.333H4.667a.667.667,0,0,1,0-1.333H7.333V13h-4A3.337,3.337,0,0,1,0,9.667V4.333A3.337,3.337,0,0,1,3.333,1h9.333A3.337,3.337,0,0,1,16,4.333Zm-1.333,0a2,2,0,0,0-2-2H3.333a2,2,0,0,0-2,2V9.667a2,2,0,0,0,2,2h9.333a2,2,0,0,0,2-2Z" transform="translate(0 -1)" fill="#555"/>
</svg>
