<svg xmlns="http://www.w3.org/2000/svg" width="16" height="16" viewBox="0 0 16 16">
  <path id="패스_8296" data-name="패스 8296" d="M0,4V3.333A3.337,3.337,0,0,1,3.333,0H5.019a2.01,2.01,0,0,1,.894.211l2.1,1.052a.67.67,0,0,0,.3.07h4.352A3.34,3.34,0,0,1,15.933,4Zm16,8a4,4,0,1,1-4-4A4,4,0,0,1,16,12Zm-1.667,0a.666.666,0,0,0-.667-.667h-1v-1a.667.667,0,0,0-1.333,0v1h-1a.667.667,0,0,0,0,1.333h1v1a.667.667,0,0,0,1.333,0v-1h1A.666.666,0,0,0,14.333,12ZM6.667,12A5.326,5.326,0,0,1,16,8.484V5.333H0v6a3.337,3.337,0,0,0,3.333,3.333H7.388A5.293,5.293,0,0,1,6.667,12Z" transform="translate(0 0)" fill="#0f6cbd"/>
</svg>
