<svg xmlns="http://www.w3.org/2000/svg" xmlns:xlink="http://www.w3.org/1999/xlink" id="_레이어_1"
  viewBox="0 0 169.01 53.3">
  <defs>
    <radialGradient id="radial-gradient" cx="43.83" cy="14.19" r="22.2" fx="43.83" fy="14.19"
      gradientUnits="userSpaceOnUse">
      <stop offset="0" stop-color="#00a2d9" />
      <stop offset=".2" stop-color="#00a2da" />
      <stop offset="1" stop-color="#005bab" />
    </radialGradient>
    <radialGradient xlink:href="#radial-gradient" id="radial-gradient-2" cx="206.34" cy="759.2" r="4.07" fx="206.34"
      fy="759.2" gradientTransform="matrix(5.48 0 0 5.48 -1086.29 -4143.94)" />
    <style>
      .cls-3 {
        fill: #515457
      }

      .cls-4 {
        fill: #005bac
      }
    </style>
  </defs>
  <path
    d="M123.76 7.47c-1.54 0-2.17.55-2.49 1.97l-3.69 22.79h8.28l4.01-24.76h-6.11ZM29.21 6.78h-7.16c-1.1 0-1.72.35-2.46 1.04l-8.18 7.97 1.97-9.01H6.89c-1.54 0-2.18.55-2.49 1.99L0 32.23h8.14l2.24-11.05 7.58 11.05H28.1L18.01 17.86l11.2-11.08ZM140.05 26.44l3.27-18.96h-6.12c-1.51 0-2.16.53-2.48 1.89l-3.7 22.88h19.53l.75-5.8h-11.25Z"
    class="cls-4" />
  <path
    d="m96.14 32.24 8.26-16.81.04-.56 3.24 17.37h8.47l-5.2-24.77h-7.82c-1.23 0-1.74.35-2.29 1.22L90.65 28.87l-7.27-6.58c3.29-.91 6.95-3.44 7.98-7.69 1.83-7.52-4.53-7.84-6.64-7.84H73.05c-1.51 0-1.78.32-2.09 1.7l-2.25 10.55C62.99 15.29 50 7.73 40.86 7.6c-2.3-.03-3.98.32-5.61 1.32-.24.15-.31.14-.34.13l.13-.27c.98-1.2 3-3.13 6.37-4.18 0 0 5.4-1.89 12.64 2.51 4.21 2.55 7.04 4.71 9.79 6.98C61.74 5.46 53.65-.72 44.42.07c-8.37.72-14.96 6.9-16.52 14.72 4.46-4 13.02-5.41 26.14-.93 2.94 1.01 5.65 2.09 8.13 3.22 2.27 1.01 4.56 2.21 6.96 3.59 4.94 2.84 10.46 6.8 14.92 11.57h12.09m-19.1-12.79c.26-1.24 1.62-7.86 1.81-8.74h3.03s3.02-.18 1.94 3.9c0 0-1.2 4.84-6.78 4.84Z"
    style="fill:url(#radial-gradient)" />
  <path
    d="M75.77 25.79c-.65 2.85-1.35 6.45-1.35 6.45h-8.54l1.94-9.15c-1.91-.62-3.24-1-3.85-1.15-1.56 7.8-8.02 14.04-16.38 14.75-5.43.46-10.5-1.44-14.19-4.87l-.02-.02s-3.55-3.23-3.28-7.9c.27-4.8 4.5-6.74 4.5-6.74 4.91-2.64 15.78-2.92 31.15 3.66 0 0 5.17 2.03 10.01 4.97Z"
    style="fill:url(#radial-gradient-2)" />
  <path
    d="M75.35 40.33h-1.08c.18.28.32.59.41.92.09.33.14.67.14 1.01 0 .61-.1 1.16-.31 1.67s-.5.94-.87 1.3c-.39.37-.83.66-1.34.86-.51.2-1.07.3-1.67.3s-1.18-.1-1.69-.3c-.51-.2-.95-.49-1.32-.86-.37-.36-.66-.8-.87-1.3-.21-.51-.31-1.07-.31-1.67 0-.35.05-.69.15-1.01.1-.33.23-.63.4-.92h-1.08v-2.09h3.57v-1.49h2.32v1.49h3.57v2.09Zm4.27 12.51H68.91c-.53 0-.96-.18-1.3-.53-.34-.35-.51-.78-.51-1.27v-4.1h2.34v3.5c0 .1.02.18.05.23.04.05.11.08.21.08h7.58l.02-12.98h2.32v2.92h2.46v2.09h-2.46v10.07Zm-9-12.62c-.57 0-1.02.18-1.35.55-.33.37-.5.87-.5 1.5s.17 1.13.5 1.5c.33.37.79.55 1.35.55s1-.19 1.34-.55c.34-.37.51-.87.51-1.5s-.17-1.13-.51-1.5c-.34-.37-.79-.55-1.34-.55ZM95.5 42.86v-2.71c0-.09-.02-.16-.07-.22a.238.238 0 0 0-.2-.09H84.26v-2.09h11.77c.51 0 .95.18 1.29.54.35.36.52.78.52 1.26v3.3h.79v2.09h-6.42v2.63h3.81c.51 0 .95.18 1.29.54.35.36.52.78.52 1.26v3.46h-2.34v-2.84c0-.1-.02-.18-.07-.24a.238.238 0 0 0-.2-.09H84.25v-2.09h5.62v-2.63h-6.2v-2.09H95.5ZM106.58 40.29c.09.63.4 1.14.93 1.52.53.38 1.26.62 2.18.72v2.09c-1.04 0-1.92-.18-2.65-.53-.72-.35-1.29-.79-1.72-1.32-.45.53-1.03.97-1.75 1.32-.71.35-1.59.53-2.64.53v-2.09c.93-.1 1.65-.34 2.18-.72.53-.38.84-.89.93-1.52h-3.05V38.2h3.13v-1.45h2.38v1.45h3.13v2.09h-3.05Zm-3.13 12.55c-.57 0-1.01-.18-1.33-.54-.32-.36-.48-.79-.48-1.3v-2.98h11.05v-.79h-11.05v-1.99h12.15c.39 0 .69.11.91.34.22.23.33.53.33.9v3.4h-11.07v.87h11.23v2.09h-11.73Zm11.57-8.22h-2.34v-2.38h-2.32v-2.09h2.32v-2.4h2.34v6.86ZM119.25 44.45v-4.89c0-.48.17-.9.51-1.26.34-.36.77-.54 1.29-.54h11.59v2.09h-10.78c-.12 0-.19.03-.23.09a.38.38 0 0 0-.06.22v3.69c0 .1.02.18.06.23.04.05.12.08.23.08h10.78v2.09h-5.55v3.54h6.28v2.09h-14.88v-2.09h6.28v-3.54h-3.73c-.52 0-.94-.18-1.29-.53a1.75 1.75 0 0 1-.51-1.27ZM150.81 45.9h-3.13c.31.37.55.79.73 1.24.18.45.27.94.27 1.47 0 .69-.12 1.33-.37 1.91-.25.58-.6 1.07-1.06 1.49-.46.4-1.03.72-1.69.95-.67.23-1.41.35-2.23.35s-1.58-.12-2.24-.35c-.66-.23-1.22-.55-1.68-.95-.46-.41-.82-.91-1.06-1.49-.25-.58-.37-1.22-.37-1.91 0-.53.09-1.02.26-1.47.17-.45.42-.86.74-1.24h-3.13v-2.09h4.93v-2.67h2.32v2.67h4.58v-3.65c0-.09-.02-.16-.07-.22-.04-.06-.11-.09-.2-.09h-10.98v-2.09h11.77c.52 0 .95.18 1.3.54.35.36.52.78.52 1.26v4.25h.79v2.09Zm-7.48.09c-.9 0-1.62.25-2.16.74-.54.5-.81 1.12-.81 1.87s.27 1.37.81 1.86c.54.5 1.26.75 2.16.75s1.62-.25 2.16-.75.81-1.12.81-1.86-.27-1.37-.81-1.87-1.26-.74-2.16-.74ZM162.38 47.39v2.16c-1.27-.28-2.35-.77-3.23-1.45a6.59 6.59 0 0 1-1.82-2.2c-.43.89-1.01 1.62-1.76 2.2-.86.68-1.95 1.17-3.25 1.45v-2.16c1.53-.44 2.6-1.36 3.19-2.76.4-.94.6-2.2.6-3.79v-3.07h2.47v3.07c0 1.58.19 2.84.58 3.77.58 1.42 1.65 2.35 3.21 2.78Zm6.63-5.4v2.09h-2.43v8.75h-2.32V37.76h2.32v4.23h2.43Z"
    class="cls-3" />
</svg>