<svg xmlns="http://www.w3.org/2000/svg" width="16" height="16.001" viewBox="0 0 16 16.001">
  <path id="network-analytic" d="M10,8.692l1.511-.147a2.332,2.332,0,1,0-.129-1.327L9.74,7.377A3.327,3.327,0,0,0,9.1,6.407l1.226-1.851A2.288,2.288,0,0,0,11,4.667a2.362,2.362,0,1,0-1.784-.847l-1.2,1.807a3.265,3.265,0,0,0-2.705,0l-1.2-1.807a2.31,2.31,0,0,0,.549-1.486A2.333,2.333,0,1,0,2.333,4.667a2.288,2.288,0,0,0,.672-.111L4.231,6.407a3.281,3.281,0,0,0-.215,4.259l-.741.869a2.345,2.345,0,1,0,1.014.866l.729-.855a3.252,3.252,0,0,0,3.614-.2l1.578,1.366a2.35,2.35,0,1,0,.873-1.007L9.525,10.355A3.3,3.3,0,0,0,10,8.693Zm3.669-2.025a1,1,0,1,1-1,1A1,1,0,0,1,13.667,6.667ZM11,1.333a1,1,0,1,1-1,1A1,1,0,0,1,11,1.333Zm-9.667,1a1,1,0,1,1,1,1A1,1,0,0,1,1.333,2.333Zm1,12.333a1,1,0,1,1,1-1A1,1,0,0,1,2.333,14.667Zm4.333-4a2,2,0,1,1,2-2A2,2,0,0,1,6.667,10.667Zm5.667,2a1,1,0,1,1-1,1A1,1,0,0,1,12.333,12.667Z" transform="translate(0 0)" fill="#555"/>
</svg>
