<svg xmlns="http://www.w3.org/2000/svg" width="12" height="12" viewBox="0 0 12 12">
  <path fill="currentColor"
    d="M2.182.545a.545.545 0 1 0-1.091 0v2.182H0V6h3.273V2.727H2.182Zm2.182 7.637A1.642 1.642 0 0 0 5.455 9.72V12h1.09V9.72a1.631 1.631 0 0 0 1.091-1.538V7.091H4.364ZM0 8.182A1.642 1.642 0 0 0 1.091 9.72V12h1.091V9.72a1.642 1.642 0 0 0 1.091-1.538V7.091H0Zm10.909-5.455V.545a.545.545 0 1 0-1.091 0v2.182H8.727V6H12V2.727ZM6.545.545a.545.545 0 0 0-1.091 0v2.182h-1.09V6h3.272V2.727H6.545Zm2.182 7.636a1.642 1.642 0 0 0 1.091 1.538V12h1.091V9.72A1.631 1.631 0 0 0 12 8.182V7.091H8.727Z"
    data-name="Icon material-settings-input-component" />
</svg>