<svg xmlns="http://www.w3.org/2000/svg" width="20" height="22" fill="currentColor" viewBox="0 0 20 22">
  <g id="train_FILL0_wght400_GRAD0_opsz24" transform="translate(0 0)">
    <path id="train_FILL0_wght400_GRAD0_opsz24-2" data-name="train_FILL0_wght400_GRAD0_opsz24"
      d="M160-864.369v-11a3.421,3.421,0,0,1,.859-2.446,5.455,5.455,0,0,1,2.266-1.389,13.746,13.746,0,0,1,3.2-.637Q168.125-880,170-880q2.063,0,3.891.159a13.078,13.078,0,0,1,3.188.637,4.87,4.87,0,0,1,2.141,1.389,3.632,3.632,0,0,1,.781,2.446v11a3.773,3.773,0,0,1-1.266,2.88,4.405,4.405,0,0,1-3.109,1.172l1.875,1.737V-858H175l-2.5-2.316h-5L165-858h-2.5v-.579l1.875-1.737a4.405,4.405,0,0,1-3.109-1.172A3.773,3.773,0,0,1,160-864.369Zm10-13.316a23.189,23.189,0,0,0-4.844.362,5.912,5.912,0,0,0-2.094.8h14a4.147,4.147,0,0,0-2.016-.825A26.817,26.817,0,0,0,170-877.684Zm-7.5,6.947h6.25v-3.474H162.5Zm13.125,2.316h0Zm-4.375-2.316h6.25v-3.474h-6.25Zm-5.625,6.947a1.9,1.9,0,0,0,1.344-.492,1.624,1.624,0,0,0,.531-1.245,1.624,1.624,0,0,0-.531-1.245,1.9,1.9,0,0,0-1.344-.492,1.9,1.9,0,0,0-1.344.492,1.624,1.624,0,0,0-.531,1.245,1.624,1.624,0,0,0,.531,1.245A1.9,1.9,0,0,0,165.625-863.79Zm8.75,0a1.9,1.9,0,0,0,1.344-.492,1.624,1.624,0,0,0,.531-1.245,1.624,1.624,0,0,0-.531-1.245,1.9,1.9,0,0,0-1.344-.492,1.9,1.9,0,0,0-1.344.492,1.624,1.624,0,0,0-.531,1.245,1.624,1.624,0,0,0,.531,1.245A1.9,1.9,0,0,0,174.375-863.79Zm-10,1.158h11.25a1.9,1.9,0,0,0,1.344-.492,1.624,1.624,0,0,0,.531-1.245v-4.053h-15v4.053a1.624,1.624,0,0,0,.531,1.245A1.9,1.9,0,0,0,164.375-862.632ZM170-876.526h0Z"
      transform="translate(-160 880)" fill="inherit" />
  </g>
</svg>