<svg fill="currentColor" id="Icon_material-settings-input-component" data-name="Icon material-settings-input-component"
  xmlns="http://www.w3.org/2000/svg" width="20" height="20" viewBox="0 0 20 20">
  <path id="Icon_material-settings-input-component-2" data-name="Icon material-settings-input-component"
    d="M5.136,2.409a.909.909,0,1,0-1.818,0V6.045H1.5V11.5H6.955V6.045H5.136ZM8.773,15.136A2.737,2.737,0,0,0,10.591,17.7v3.8h1.818V17.7a2.719,2.719,0,0,0,1.818-2.564V13.318H8.773Zm-7.273,0A2.737,2.737,0,0,0,3.318,17.7v3.8H5.136V17.7a2.737,2.737,0,0,0,1.818-2.564V13.318H1.5ZM19.682,6.045V2.409a.909.909,0,1,0-1.818,0V6.045H16.045V11.5H21.5V6.045ZM12.409,2.409a.909.909,0,1,0-1.818,0V6.045H8.773V11.5h5.455V6.045H12.409Zm3.636,12.727A2.737,2.737,0,0,0,17.864,17.7v3.8h1.818V17.7A2.719,2.719,0,0,0,21.5,15.136V13.318H16.045Z"
    transform="translate(-1.5 -1.5)" fill="inherit" />
</svg>