<svg stroke="currentColor" xmlns="http://www.w3.org/2000/svg" width="22.5" height="22.5" viewBox="0 0 22.5 22.5">
  <g id="구성_요소_15_1" data-name="구성 요소 15 – 1" transform="translate(1.25 1.25)">
    <g id="그룹_1219" data-name="그룹 1219" transform="translate(-114 -329)">
      <path id="패스_481" data-name="패스 481"
        d="M19.639,16.569A3.069,3.069,0,1,1,16.569,13.5,3.069,3.069,0,0,1,19.639,16.569Z"
        transform="translate(107.431 322.431)" fill="none" stroke="inherit" stroke-linecap="round"
        stroke-linejoin="round" stroke-width="2.5" />
      <path id="패스_482" data-name="패스 482"
        d="M18.227,14.227a1.5,1.5,0,0,0,.3,1.655l.055.055a1.819,1.819,0,1,1-2.573,2.573l-.055-.055a1.512,1.512,0,0,0-2.564,1.073v.155a1.818,1.818,0,1,1-3.636,0V19.6a1.5,1.5,0,0,0-.982-1.373,1.5,1.5,0,0,0-1.655.3l-.055.055a1.819,1.819,0,1,1-2.573-2.573l.055-.055a1.512,1.512,0,0,0-1.073-2.564H3.318a1.818,1.818,0,0,1,0-3.636H3.4a1.5,1.5,0,0,0,1.373-.982,1.5,1.5,0,0,0-.3-1.655l-.055-.055A1.819,1.819,0,1,1,6.991,4.491l.055.055a1.5,1.5,0,0,0,1.655.3h.073a1.5,1.5,0,0,0,.909-1.373V3.318a1.818,1.818,0,0,1,3.636,0V3.4a1.512,1.512,0,0,0,2.564,1.073l.055-.055a1.819,1.819,0,1,1,2.573,2.573l-.055.055a1.5,1.5,0,0,0-.3,1.655v.073a1.5,1.5,0,0,0,1.373.909h.155a1.818,1.818,0,0,1,0,3.636H19.6a1.5,1.5,0,0,0-1.373.909Z"
        transform="translate(112.5 327.5)" fill="none" stroke="inherit" stroke-linecap="round" stroke-linejoin="round"
        stroke-width="2.5" />
    </g>
  </g>
</svg>