<svg xmlns="http://www.w3.org/2000/svg" width="15.571" height="16.111" viewBox="0 0 15.571 16.111">
  <path id="database-management" d="M15.235,12.844l-.654-.377a3.077,3.077,0,0,0,0-2.11l.654-.377a.671.671,0,0,0-.671-1.163l-.653.377a3.337,3.337,0,0,0-1.828-1.07V7.385a.671.671,0,1,0-1.343,0v.739a3.345,3.345,0,0,0-1.828,1.07l-.653-.377a.671.671,0,1,0-.671,1.163l.654.377a3.077,3.077,0,0,0,0,2.11l-.654.377a.671.671,0,1,0,.671,1.163l.653-.377A3.337,3.337,0,0,0,10.74,14.7v.739a.671.671,0,0,0,1.343,0V14.7a3.345,3.345,0,0,0,1.828-1.07l.653.377a.671.671,0,1,0,.671-1.163Zm-3.824.581a2.014,2.014,0,1,1,2.014-2.014A2.016,2.016,0,0,1,11.412,13.426Zm-4.757,1.3c-.307.026-.624.041-.949.041-2.823,0-4.363-.982-4.363-1.486V11.719a8.226,8.226,0,0,0,4.007,1.03H5.37a.671.671,0,0,0,.02-1.343c-2.508-.077-4.048-1.026-4.048-1.673V8.363a8.226,8.226,0,0,0,4.007,1.03H5.37A.671.671,0,0,0,5.39,8.05C2.882,7.973,1.341,7.024,1.341,6.376V5.006A8.469,8.469,0,0,0,5.7,6.041a8.476,8.476,0,0,0,4.363-1.034v.028a.671.671,0,0,0,1.343,0V3.02C11.412,1.3,8.959,0,5.706,0S0,1.3,0,3.021V13.282c0,1.857,2.87,2.829,5.706,2.829.356,0,.714-.015,1.065-.046a.671.671,0,1,0-.116-1.337ZM5.706,1.343c2.664,0,4.363.993,4.363,1.678S8.369,4.7,5.706,4.7,1.343,3.705,1.343,3.021,3.042,1.343,5.706,1.343Z" transform="translate(0 0)" fill="#555"/>
</svg>
