<svg xmlns="http://www.w3.org/2000/svg" width="11.414" height="16.114" viewBox="0 0 11.414 16.114">
  <path id="합치기_3" data-name="합치기 3" d="M0,13.285V2.83C0,1.349,1.841.437,4.015.125A11.205,11.205,0,0,1,5.708,0q.485,0,.946.038c.16.012.319.028.476.046A.678.678,0,0,1,7.2.1c2.483.33,4.215,1.478,4.214,2.925V13.285c0,1.857-2.871,2.829-5.707,2.829S0,15.142,0,13.285Zm5.706,1.486c2.824,0,4.364-.982,4.364-1.486V11.746a8.716,8.716,0,0,1-4.364,1.01,8.471,8.471,0,0,1-4.364-1.034v1.563C1.343,13.789,2.883,14.771,5.706,14.771Zm0-3.357H5.86c2.322-.034,3.973-.828,4.212-1.537,0-.372,0-.833,0-1.311h0A8.56,8.56,0,0,1,5.706,9.4a9.319,9.319,0,0,1-4.364-.946V9.736C1.343,10.421,3.043,11.414,5.706,11.414Zm0-3.358c.106,0,.213,0,.317,0a.657.657,0,0,1,.082,0c2.876-.061,3.8-.786,3.964-1.3,0-1.017,0-1.74,0-1.74A8.189,8.189,0,0,1,6.112,6.035l-.051,0c-.117,0-.235,0-.353,0A9.321,9.321,0,0,1,1.343,5.1V6.57C1.343,7.074,2.883,8.056,5.708,8.056Zm0-3.357c2.664,0,4.364-.994,4.364-1.679,0-.62-1.395-1.494-3.637-1.653-.239-.016-.482-.024-.727-.024q-.244,0-.476.01c-2.389.109-3.889,1.025-3.889,1.668C1.344,3.706,3.044,4.7,5.708,4.7Z" fill="#555"/>
</svg>
