<svg id="apps-add" xmlns="http://www.w3.org/2000/svg" width="16" height="16" viewBox="0 0 16 16">
  <path id="패스_8192" data-name="패스 8192" d="M4.667,0h-2A2.667,2.667,0,0,0,0,2.667v2A2.667,2.667,0,0,0,2.667,7.333h2A2.667,2.667,0,0,0,7.333,4.667v-2A2.667,2.667,0,0,0,4.667,0ZM6,4.667A1.333,1.333,0,0,1,4.667,6h-2A1.333,1.333,0,0,1,1.333,4.667v-2A1.333,1.333,0,0,1,2.667,1.333h2A1.333,1.333,0,0,1,6,2.667Z" fill="#555"/>
  <path id="패스_8193" data-name="패스 8193" d="M4.667,13h-2A2.667,2.667,0,0,0,0,15.667v2a2.667,2.667,0,0,0,2.667,2.667h2a2.667,2.667,0,0,0,2.667-2.667v-2A2.667,2.667,0,0,0,4.667,13ZM6,17.667A1.333,1.333,0,0,1,4.667,19h-2a1.333,1.333,0,0,1-1.333-1.333v-2a1.333,1.333,0,0,1,1.333-1.333h2A1.333,1.333,0,0,1,6,15.667Z" transform="translate(0 -4.333)" fill="#555"/>
  <path id="패스_8194" data-name="패스 8194" d="M17.667,13h-2A2.667,2.667,0,0,0,13,15.667v2a2.667,2.667,0,0,0,2.667,2.667h2a2.667,2.667,0,0,0,2.667-2.667v-2A2.667,2.667,0,0,0,17.667,13ZM19,17.667A1.333,1.333,0,0,1,17.667,19h-2a1.333,1.333,0,0,1-1.333-1.333v-2a1.333,1.333,0,0,1,1.333-1.333h2A1.333,1.333,0,0,1,19,15.667Z" transform="translate(-4.333 -4.333)" fill="#555"/>
  <path id="패스_8195" data-name="패스 8195" d="M13.667,5h2V7A.667.667,0,1,0,17,7V5h2a.667.667,0,1,0,0-1.333H17v-2a.667.667,0,1,0-1.333,0v2h-2a.667.667,0,1,0,0,1.333Z" transform="translate(-4.333 -0.333)" fill="#555"/>
</svg>
