<svg xmlns="http://www.w3.org/2000/svg" width="16" height="14.667" viewBox="0 0 16 14.667">
  <path id="browser" d="M12.667,1H3.333A3.337,3.337,0,0,0,0,4.333v8a3.337,3.337,0,0,0,3.333,3.333h9.333A3.337,3.337,0,0,0,16,12.333v-8A3.337,3.337,0,0,0,12.667,1ZM3.333,2.333h9.333a2,2,0,0,1,2,2V5H1.333V4.333a2,2,0,0,1,2-2Zm9.333,12H3.333a2,2,0,0,1-2-2v-6H14.667v6A2,2,0,0,1,12.667,14.333Zm0-5.333A.667.667,0,0,1,12,9.667H4A.667.667,0,0,1,4,8.333h8A.667.667,0,0,1,12.667,9ZM10,11.667a.667.667,0,0,1-.667.667H4A.667.667,0,1,1,4,11H9.333A.667.667,0,0,1,10,11.667Zm-8-8a.667.667,0,1,1,.667.667A.667.667,0,0,1,2,3.667Zm2,0a.667.667,0,1,1,.667.667A.667.667,0,0,1,4,3.667Zm2,0a.667.667,0,1,1,.667.667A.667.667,0,0,1,6,3.667Z" transform="translate(0 -1)" fill="#555"/>
</svg>
