<svg xmlns="http://www.w3.org/2000/svg" width="16" height="15.999" viewBox="0 0 16 15.999">
  <path id="text-box" d="M10.666,6A.666.666,0,0,1,10,6.666H8.666v4a.667.667,0,0,1-1.333,0v-4H6A.667.667,0,0,1,6,5.333h4A.666.666,0,0,1,10.666,6ZM16,13.666a2.333,2.333,0,0,1-4.441,1H4.441a2.333,2.333,0,1,1-3.108-3.108V4.441A2.333,2.333,0,1,1,4.441,1.333h7.118a2.333,2.333,0,1,1,3.108,3.108v7.118A2.337,2.337,0,0,1,16,13.667Zm-2.667-2.309V4.642a2.339,2.339,0,0,1-1.976-1.976H4.642A2.339,2.339,0,0,1,2.667,4.642v6.714a2.339,2.339,0,0,1,1.976,1.976h6.714A2.339,2.339,0,0,1,13.333,11.357Zm-.667-9.024a1,1,0,1,0,1-1A1,1,0,0,0,12.666,2.333Zm-11.333,0a1,1,0,1,0,1-1A1,1,0,0,0,1.333,2.333Zm2,11.333a1,1,0,1,0-1,1A1,1,0,0,0,3.333,13.666Zm11.333,0a1,1,0,1,0-1,1A1,1,0,0,0,14.666,13.666Z" fill="#555"/>
</svg>
