<svg id="그룹_13133" data-name="그룹 13133" xmlns="http://www.w3.org/2000/svg" width="16" height="17.12" viewBox="0 0 16 17.12">
  <path id="패스_8297" data-name="패스 8297" d="M15,0a1,1,0,0,1,1,1V3a1,1,0,0,1-1,1H1A1,1,0,0,1,0,3V1A1,1,0,0,1,1,0ZM2,1A1,1,0,1,0,3,2,1,1,0,0,0,2,1Z" fill="#0f6cbd"/>
  <path id="패스_8298" data-name="패스 8298" d="M16,13.12a4,4,0,1,1-4-4A4,4,0,0,1,16,13.12Zm-1.667,0a.666.666,0,0,0-.667-.667h-1v-1a.667.667,0,1,0-1.333,0v1h-1a.667.667,0,0,0,0,1.333h1v1a.667.667,0,1,0,1.333,0v-1h1A.666.666,0,0,0,14.333,13.12Z" fill="#0f6cbd"/>
  <path id="패스_8299" data-name="패스 8299" d="M15,6a1,1,0,0,1,1,1V9a.994.994,0,0,1-.144.515A5.277,5.277,0,0,0,7.741,10H1A1,1,0,0,1,0,9V7A1,1,0,0,1,1,6ZM2,7A1,1,0,1,0,3,8,1,1,0,0,0,2,7Z" fill="#0f6cbd"/>
  <path id="패스_8300" data-name="패스 8300" d="M6.84,12a5.274,5.274,0,0,0,.736,4H1a1,1,0,0,1-1-1V13a1,1,0,0,1,1-1ZM2,13a1,1,0,1,0,1,1A1,1,0,0,0,2,13Z" fill="#0f6cbd"/>
</svg>
