<svg xmlns="http://www.w3.org/2000/svg" width="16" height="16" viewBox="0 0 16 16">
  <path id="big-data-analytics" d="M4,10a.666.666,0,0,1,.667.667v2a.667.667,0,1,1-1.333,0v-2A.666.666,0,0,1,4,10ZM6.667,7.333A.666.666,0,0,0,6,8v4.667a.667.667,0,1,0,1.333,0V8A.666.666,0,0,0,6.667,7.333ZM16,14.555C16,15.473,14.906,16,13,16s-3-.527-3-1.445V9.667c0-.589,1.233-1,3-1s3,.411,3,1Zm-3-3.889a8.375,8.375,0,0,1-1.667-.151v1.179A3.291,3.291,0,0,0,13,12a3.177,3.177,0,0,0,1.667-.326V10.516A8.375,8.375,0,0,1,13,10.667ZM14.667,14.4V13.113A5.716,5.716,0,0,1,13,13.333a5.792,5.792,0,0,1-1.667-.214V14.4A3.975,3.975,0,0,0,13,14.667,3.975,3.975,0,0,0,14.667,14.4Zm-6-7.738a2,2,0,0,1-2-2v-3.3c-.108-.011-.214-.031-.323-.031H3.333a2,2,0,0,0-2,2v9.333a2,2,0,0,0,2,2H8A.667.667,0,1,1,8,16H3.333A3.337,3.337,0,0,1,0,12.667V3.333A3.337,3.337,0,0,1,3.333,0h3.01a4.639,4.639,0,0,1,3.3,1.367l2.323,2.324a4.668,4.668,0,0,1,1.352,2.922.667.667,0,0,1-.611.719.681.681,0,0,1-.728-.665H8.666Zm0-1.333h2.877a3.306,3.306,0,0,0-.521-.7L8.7,2.31A3.326,3.326,0,0,0,8,1.789V4.667A.667.667,0,0,0,8.667,5.333Z" fill="#555"/>
</svg>
